<?xml version="1.0" standalone="no"?><!DOCTYPE svg PUBLIC "-//W3C//DTD SVG 1.1//EN" "http://www.w3.org/Graphics/SVG/1.1/DTD/svg11.dtd"><svg t="1558191829782" class="icon" style="" viewBox="0 0 1105 1024" version="1.1" xmlns="http://www.w3.org/2000/svg" p-id="2443" xmlns:xlink="http://www.w3.org/1999/xlink" width="19.423828125" height="18"><defs><style type="text/css"></style></defs><path d="M255.68142222 861.52533333h652.44728889v139.81013334H255.68142222z" p-id="2444"></path><path d="M480.16989298 207.95956338l-91.8552576 239.30834489 51.86955947 19.89964231-38.35457992 99.96424533 55.41141618 21.25114027L388.12822187 768.31857778h203.05091698l42.9683143-111.89471005 55.45801956 21.29774365 38.40118329-100.01084871 51.82295609 19.89964231 91.90186098-239.30834489-391.56158009-150.34249671z m72.60806257 504.48156444h-83.28023608l39.89249138-103.92553244 72.5614592 27.86881991-29.1737145 76.05671253z m104.71778987-107.00135537l-69.34582613-26.61052872-110.96264249-42.59548728v0.04660337l-3.16902969-1.21168782 18.36173084-47.76846222 183.43089494 70.41770382-18.31512747 47.72185885z m90.22413938-80.15780978l-287.12341049-110.26359182 51.72974934-134.77696854 287.12341048 110.21698844-51.72974933 134.82357192z" p-id="2445"></path></svg>