<svg t="1558189375247" class="icon" style="" viewBox="0 0 1105 1024" version="1.1" xmlns="http://www.w3.org/2000/svg" p-id="2336" xmlns:xlink="http://www.w3.org/1999/xlink" width="215.8203125" height="200">
    <defs><style type="text/css"></style></defs>
    <path d="M286.72 819.2h573.44v122.88H286.72z" p-id="2337"></path><path d="M484.02432 244.77696l-80.73216 210.3296 45.58848 17.48992-33.71008 87.8592 48.70144 18.67776L403.12832 737.28h178.46272l37.76512-98.34496 48.7424 18.71872 33.75104-87.90016 45.54752 17.48992 80.77312-210.3296-344.14592-132.13696z m63.81568 443.392h-73.19552l35.06176-91.3408 63.77472 24.49408-25.64096 66.84672z m92.03712-94.04416l-60.94848-23.38816-97.52576-37.43744v0.04096l-2.78528-1.06496 16.13824-41.984 161.21856 61.89056-16.09728 41.94304z m79.29856-70.4512l-252.35456-96.91136 45.4656-118.45632 252.35456 96.8704-45.4656 118.49728z" p-id="2338">
</path>
</svg>